<svg width="369" height="198" viewBox="0 0 369 198" fill="none" xmlns="http://www.w3.org/2000/svg">
<g opacity="0.41" filter="url(#filter0_f_388_2)">
<path fill-rule="evenodd" clip-rule="evenodd" d="M65 133.5V65H77.5C80 65 83 66.1716 83 69C83 69.8145 83.0271 71.6852 83.0623 74.1205L83.0623 74.1208C83.1786 82.1497 83.3836 96.3146 83 99C82.6 101.8 80.1667 102.833 79 103H72V133.5H65ZM94 133.5C90.8 133.5 89.6667 130.167 89.5 128.5V69C89.5 67 90 65 94.5 65H102.5C106.5 65 108.333 68.3333 108 70C107.833 88 107.5 124.9 107.5 128.5C107.5 132.1 104.833 133.333 103.5 133.5H94ZM126.5 127.5V134H114V65.5H121V127.5H126.5ZM137 133.5H130.5L137 95.5L130 65.5H137L140.5 81L143 65.5H150.5L137 133.5ZM166 105.5H173V129C172.667 130.5 171.4 133.5 169 133.5H159C157.667 133.5 155 132.4 155 128V71C155 69.1667 156 65.5 160 65.5H168.5C170.167 65.5 173.4 66.6 173 71V83.5H166V72H162V127H166V105.5ZM179.5 72V65.5H197V72H192V133.5H185V72H184.5H179.5ZM202 65.5V133.5H209V96.5H217.5V90H209V72H219V65.5H202ZM72.5 72V96.5H76V72H72.5ZM97 72V126.5H100V72H97Z" fill="#F2F4F3"/>
</g>
<g filter="url(#filter1_f_388_2)">
<path fill-rule="evenodd" clip-rule="evenodd" d="M65 133.5V65H77.5C80 65 83 66.1716 83 69C83 69.8145 83.0271 71.6852 83.0623 74.1205L83.0623 74.1208C83.1786 82.1497 83.3836 96.3146 83 99C82.6 101.8 80.1667 102.833 79 103H72V133.5H65ZM94 133.5C90.8 133.5 89.6667 130.167 89.5 128.5V69C89.5 67 90 65 94.5 65H102.5C106.5 65 108.333 68.3333 108 70C107.833 88 107.5 124.9 107.5 128.5C107.5 132.1 104.833 133.333 103.5 133.5H94ZM126.5 127.5V134H114V65.5H121V127.5H126.5ZM137 133.5H130.5L137 95.5L130 65.5H137L140.5 81L143 65.5H150.5L137 133.5ZM166 105.5H173V129C172.667 130.5 171.4 133.5 169 133.5H159C157.667 133.5 155 132.4 155 128V71C155 69.1667 156 65.5 160 65.5H168.5C170.167 65.5 173.4 66.6 173 71V83.5H166V72H162V127H166V105.5ZM179.5 72V65.5H197V72H192V133.5H185V72H184.5H179.5ZM202 65.5V133.5H209V96.5H217.5V90H209V72H219V65.5H202ZM72.5 72V96.5H76V72H72.5ZM97 72V126.5H100V72H97Z" fill="#F2F4F3"/>
</g>
<defs>
<filter id="filter0_f_388_2" x="-85" y="-85" width="454" height="369" filterUnits="userSpaceOnUse" color-interpolation-filters="sRGB">
<feFlood flood-opacity="0" result="BackgroundImageFix"/>
<feBlend mode="normal" in="SourceGraphic" in2="BackgroundImageFix" result="shape"/>
<feGaussianBlur stdDeviation="75" result="effect1_foregroundBlur_388_2"/>
</filter>
<filter id="filter1_f_388_2" x="64" y="64" width="156" height="71" filterUnits="userSpaceOnUse" color-interpolation-filters="sRGB">
<feFlood flood-opacity="0" result="BackgroundImageFix"/>
<feBlend mode="normal" in="SourceGraphic" in2="BackgroundImageFix" result="shape"/>
<feGaussianBlur stdDeviation="0.5" result="effect1_foregroundBlur_388_2"/>
</filter>
</defs>
</svg>
