<svg width="154" height="69" viewBox="0 0 154 69" fill="none" xmlns="http://www.w3.org/2000/svg">
<path fill-rule="evenodd" clip-rule="evenodd" d="M0 68.5V0H12.5C15 0 18 1.17157 18 4C18 4.81454 18.0271 6.68524 18.0623 9.1205L18.0623 9.12085C18.1786 17.1497 18.3836 31.3146 18 34C17.6 36.8 15.1667 37.8333 14 38H7V68.5H0ZM29 68.5C25.8 68.5 24.6667 65.1667 24.5 63.5V4C24.5 2 25 0 29.5 0H37.5C41.5 0 43.3333 3.33333 43 5C42.8333 23 42.5 59.9 42.5 63.5C42.5 67.1 39.8333 68.3333 38.5 68.5H29ZM61.5 62.5V69H49V0.5H56V62.5H61.5ZM72 68.5H65.5L72 30.5L65 0.5H72L75.5 16L78 0.5H85.5L72 68.5ZM101 40.5H108V64C107.667 65.5 106.4 68.5 104 68.5H94C92.6667 68.5 90 67.4 90 63V6C90 4.16667 91 0.5 95 0.5H103.5C105.167 0.5 108.4 1.6 108 6V18.5H101V7H97V62H101V40.5ZM114.5 7V0.5H132V7H127V68.5H120V7H119.5H114.5ZM137 0.5V68.5H144V31.5H152.5V25H144V7H154V0.5H137ZM7.5 7V31.5H11V7H7.5ZM32 7V61.5H35V7H32Z" fill="#F2F4F3"/>
</svg>
