<svg width="1920" height="1242" viewBox="0 0 1920 1242" fill="none" xmlns="http://www.w3.org/2000/svg">
<g clip-path="url(#clip0_427_31)">
<rect width="1920" height="1243.3" fill="#111111"/>
<g filter="url(#filter0_f_427_31)">
<path d="M911.5 667.173C433 667.173 429.5 232 -48 232V1168H2210V667.173C1900 667.173 1796.5 514.574 1486.5 514.574C1218.5 514.574 1171 667.173 911.5 667.173Z" fill="url(#paint0_linear_427_31)" fill-opacity="0.5"/>
</g>
<g filter="url(#filter1_f_427_31)">
<path d="M796.5 323C318 323 429.5 588.5 -48 588.5V1168H2210L2197 323C1887 323 1704 567 1394 567C1126 567 1056 323 796.5 323Z" fill="url(#paint1_linear_427_31)" fill-opacity="0.5"/>
</g>
<g filter="url(#filter2_f_427_31)">
<path d="M1250 713.5C1728.5 713.5 1732 113 2209.5 113V1168H-48.5V850.5C261.5 850.5 319 483 629 483C897 483 990.5 713.5 1250 713.5Z" fill="url(#paint2_linear_427_31)" fill-opacity="0.5"/>
</g>
<circle cx="594.5" cy="93.5" r="61" stroke="#C79EED" stroke-width="5"/>
<circle cx="1690.88" cy="46.8837" r="30.1482" transform="rotate(96.0033 1690.88 46.8837)" stroke="#C79EED" stroke-width="5"/>
<circle cx="667" cy="62" r="29.5" stroke="#C79EED" stroke-width="5"/>
<circle cx="1288" cy="115" r="29.5" stroke="#C79EED" stroke-width="5"/>
<circle cx="699" cy="115" r="13.5" stroke="#C79EED" stroke-width="5"/>
<circle cx="263.171" cy="46.1711" r="29.5" transform="rotate(96.0033 263.171 46.1711)" stroke="#C79EED" stroke-width="5"/>
<circle cx="210.586" cy="60.5856" r="13.5" transform="rotate(96.0033 210.586 60.5856)" stroke="#C79EED" stroke-width="5"/>
<circle cx="1436.79" cy="79.7931" r="61" transform="rotate(96.0033 1436.79 79.7931)" stroke="#C79EED" stroke-width="5"/>
<circle cx="1471.59" cy="67.5856" r="13.5" transform="rotate(96.0033 1471.59 67.5856)" stroke="#C79EED" stroke-width="5"/>
</g>
<defs>
<filter id="filter0_f_427_31" x="-49" y="231" width="2260" height="938" filterUnits="userSpaceOnUse" color-interpolation-filters="sRGB">
<feFlood flood-opacity="0" result="BackgroundImageFix"/>
<feBlend mode="normal" in="SourceGraphic" in2="BackgroundImageFix" result="shape"/>
<feGaussianBlur stdDeviation="0.5" result="effect1_foregroundBlur_427_31"/>
</filter>
<filter id="filter1_f_427_31" x="-49" y="322" width="2260" height="847" filterUnits="userSpaceOnUse" color-interpolation-filters="sRGB">
<feFlood flood-opacity="0" result="BackgroundImageFix"/>
<feBlend mode="normal" in="SourceGraphic" in2="BackgroundImageFix" result="shape"/>
<feGaussianBlur stdDeviation="0.5" result="effect1_foregroundBlur_427_31"/>
</filter>
<filter id="filter2_f_427_31" x="-49.5" y="112" width="2260" height="1057" filterUnits="userSpaceOnUse" color-interpolation-filters="sRGB">
<feFlood flood-opacity="0" result="BackgroundImageFix"/>
<feBlend mode="normal" in="SourceGraphic" in2="BackgroundImageFix" result="shape"/>
<feGaussianBlur stdDeviation="0.5" result="effect1_foregroundBlur_427_31"/>
</filter>
<linearGradient id="paint0_linear_427_31" x1="1081" y1="232" x2="1081" y2="1168" gradientUnits="userSpaceOnUse">
<stop stop-color="#C79EED"/>
<stop offset="1" stop-color="#C79EED" stop-opacity="0"/>
</linearGradient>
<linearGradient id="paint1_linear_427_31" x1="1081" y1="232" x2="1081" y2="1168" gradientUnits="userSpaceOnUse">
<stop stop-color="#C79EED"/>
<stop offset="1" stop-color="#C79EED" stop-opacity="0"/>
</linearGradient>
<linearGradient id="paint2_linear_427_31" x1="1080.5" y1="113" x2="1080.5" y2="1168" gradientUnits="userSpaceOnUse">
<stop stop-color="#C79EED"/>
<stop offset="1" stop-color="#C79EED" stop-opacity="0"/>
</linearGradient>
<clipPath id="clip0_427_31">
<rect width="1920" height="1242" fill="white"/>
</clipPath>
</defs>
</svg>
