<svg width="1920" height="888" viewBox="0 0 1920 888" fill="none" xmlns="http://www.w3.org/2000/svg">
<g opacity="0.7" clip-path="url(#clip0_180_13)">
<path d="M316.601 330.642L-33.8243 570.511C-35.1859 571.443 -36 572.987 -36 574.637V940.5C-36 943.261 -33.7614 945.5 -31 945.5H1953.5C1956.26 945.5 1958.5 943.261 1958.5 940.5V515.1C1958.5 513.47 1957.71 511.943 1956.37 511.007L1700.79 331.66C1698.65 330.159 1695.72 330.558 1694.06 332.576L1415.49 671.147C1413.45 673.63 1409.63 673.567 1407.67 671.018L921.249 38.5247C919.163 35.812 915.029 35.9496 913.128 38.795L623.423 472.373C622.035 474.451 619.325 475.185 617.078 474.091L321.614 330.272C319.998 329.486 318.084 329.627 316.601 330.642Z" fill="url(#paint0_linear_180_13)"/>
<path d="M241.839 285.355L-35.4761 842.448C-35.8207 843.14 -36 843.902 -36 844.676V889.5C-36 892.261 -33.7614 894.5 -31 894.5H1953.5C1956.26 894.5 1958.5 892.261 1958.5 889.5V463.611C1958.5 462.261 1957.95 460.969 1956.99 460.028L1719.4 228.792C1717.3 226.751 1713.91 226.94 1712.05 229.2L1615.18 347.023C1613.24 349.382 1609.66 349.467 1607.61 347.203L1400.97 118.882C1398.89 116.589 1395.25 116.71 1393.34 119.136L1007.98 606.726C1006.32 608.834 1003.28 609.248 1001.11 607.665L524.127 259.781C522.286 258.438 519.77 258.51 518.008 259.956L343.586 403.145C341.367 404.967 338.074 404.55 336.378 402.233L250.351 284.631C248.138 281.607 243.509 282 241.839 285.355Z" fill="url(#paint1_linear_180_13)"/>
<path d="M125.297 407.514L-35.4215 711.904C-35.8014 712.624 -36 713.425 -36 714.239V1081.5C-36 1084.26 -33.7614 1086.5 -31 1086.5H1954.4C1956.79 1086.5 1958.84 1084.82 1959.31 1082.48L2014.99 805.042C2015.31 803.448 2014.83 801.798 2013.72 800.618L1821.06 597.37C1819.16 595.369 1816 595.281 1814 597.172L1648.14 753.599C1645.94 755.668 1642.43 755.339 1640.66 752.899L1400.41 421.954C1398.08 418.744 1393.12 419.396 1391.7 423.099L1249.53 793.297C1248.07 797.118 1242.88 797.653 1240.66 794.211L896.106 259.1C894.302 256.299 890.315 256.012 888.129 258.526L773.563 390.254C771.32 392.832 767.209 392.451 765.479 389.504L662.538 214.227C660.556 210.852 655.639 210.961 653.808 214.42L381.706 728.498C379.987 731.747 375.467 732.092 373.274 729.142L133.731 406.865C131.537 403.913 127.014 404.261 125.297 407.514Z" fill="url(#paint2_linear_180_13)" fill-opacity="0.9"/>
</g>
<defs>
<linearGradient id="paint0_linear_180_13" x1="995" y1="1211" x2="1003" y2="4.49989" gradientUnits="userSpaceOnUse">
<stop stop-color="#C79EED" stop-opacity="0.82"/>
<stop offset="1" stop-color="#C79EED" stop-opacity="0"/>
</linearGradient>
<linearGradient id="paint1_linear_180_13" x1="1231.5" y1="1237.5" x2="760" y2="-89.5" gradientUnits="userSpaceOnUse">
<stop stop-color="#C79EED" stop-opacity="0.82"/>
<stop offset="0.959378" stop-color="#C79EED" stop-opacity="0"/>
</linearGradient>
<linearGradient id="paint2_linear_180_13" x1="535.5" y1="1403" x2="1321.5" y2="167.5" gradientUnits="userSpaceOnUse">
<stop stop-color="#C79EED" stop-opacity="0.82"/>
<stop offset="1" stop-color="#C79EED" stop-opacity="0"/>
</linearGradient>
<clipPath id="clip0_180_13">
<rect width="1920" height="1080" fill="white"/>
</clipPath>
</defs>
</svg>
